<?xml version="1.0" encoding="utf-8"?>
<!-- Generator: Adobe Illustrator 16.0.0, SVG Export Plug-In . SVG Version: 6.00 Build 0)  -->
<!DOCTYPE svg PUBLIC "-//W3C//DTD SVG 1.1//EN" "http://www.w3.org/Graphics/SVG/1.1/DTD/svg11.dtd">
<svg version="1.1" id="Layer_1" xmlns="http://www.w3.org/2000/svg" xmlns:xlink="http://www.w3.org/1999/xlink" x="0px" y="0px"
	 width="512px" height="512px" viewBox="0 0 512 512" enable-background="new 0 0 512 512" xml:space="preserve">
<g>
	<path fill="#E95D26" d="M504.079,256c0,137.011-111.065,248.079-248.079,248.079C118.985,504.079,7.921,393.011,7.921,256
		S118.985,7.921,256,7.921C393.014,7.921,504.079,118.989,504.079,256z"/>
	<path fill="#4A494A" d="M192.964,117.468H50.176C24.96,154.854,9.684,199.481,8.082,247.575h184.882
		c3.129,0,5.666-2.537,5.666-5.667V123.135C198.63,120.005,196.093,117.468,192.964,117.468z"/>
	<g>
		<path fill="#FFFFFF" d="M60.485,140.46v-10.125h2.261v8.112h4.314v2.012H60.485z"/>
		<path fill="#FFFFFF" d="M68.716,130.335h2.254v10.125h-2.254V130.335z"/>
		<path fill="#FFFFFF" d="M75.829,132.357c-0.223,0.178-0.33,0.414-0.33,0.707c0,0.296,0.135,0.532,0.403,0.703
			c0.263,0.175,0.875,0.38,1.838,0.616c0.962,0.239,1.702,0.592,2.24,1.066c0.525,0.471,0.795,1.161,0.795,2.069
			c0,0.909-0.344,1.646-1.023,2.207c-0.68,0.565-1.574,0.848-2.685,0.848c-1.602,0-3.049-0.592-4.327-1.78l1.346-1.652
			c1.09,0.956,2.1,1.434,3.028,1.434c0.41,0,0.74-0.087,0.969-0.27c0.242-0.178,0.363-0.417,0.363-0.723
			c0-0.303-0.134-0.545-0.377-0.723c-0.255-0.179-0.753-0.36-1.493-0.542c-1.178-0.279-2.046-0.646-2.585-1.094
			c-0.552-0.451-0.82-1.154-0.82-2.116c0-0.959,0.35-1.699,1.036-2.221s1.548-0.781,2.584-0.781c0.673,0,1.353,0.114,2.032,0.347
			c0.673,0.232,1.259,0.559,1.764,0.982l-1.145,1.652c-0.875-0.666-1.79-0.999-2.719-0.999
			C76.347,132.088,76.044,132.179,75.829,132.357z"/>
		<path fill="#FFFFFF" d="M86.899,132.29v8.17h-2.262v-8.17h-2.866v-1.955h7.994v1.955H86.899z"/>
		<path fill="#FFFFFF" d="M104.302,134.087l-2.732,5.532h-1.346l-2.726-5.532v6.373h-2.255v-10.125h3.056l2.604,5.562l2.618-5.562
			h3.041v10.125h-2.261V134.087z"/>
		<path fill="#FFFFFF" d="M113.413,140.46h-2.261v-3.998l-3.499-6.127h2.449l2.181,3.765l2.187-3.765h2.45l-3.507,6.127V140.46z"/>
		<path fill="#FFFFFF" d="M124.988,136.156l1.79-5.821h2.362l1.783,5.821l2.012-5.821h2.443l-3.526,10.125h-1.683l-2.214-7.039
			l-2.2,7.039h-1.683l-3.533-10.125h2.443L124.988,136.156z"/>
		<path fill="#FFFFFF" d="M144.941,139.06c-1.022,1.003-2.281,1.501-3.775,1.501c-1.5,0-2.759-0.498-3.782-1.501
			c-1.022-0.999-1.534-2.241-1.534-3.728s0.512-2.729,1.534-3.728c1.023-1,2.282-1.498,3.782-1.498c1.494,0,2.753,0.498,3.775,1.498
			c1.023,0.999,1.534,2.241,1.534,3.728S145.965,138.061,144.941,139.06z M144.175,135.339c0-0.902-0.29-1.672-0.868-2.309
			c-0.579-0.636-1.293-0.956-2.141-0.956c-0.841,0-1.555,0.32-2.133,0.956c-0.579,0.636-0.868,1.407-0.868,2.309
			s0.289,1.672,0.868,2.305c0.578,0.629,1.292,0.946,2.133,0.946c0.848,0,1.562-0.316,2.141-0.946
			C143.885,137.011,144.175,136.241,144.175,135.339z"/>
		<path fill="#FFFFFF" d="M156.597,133.697c0,1.622-0.639,2.668-1.924,3.143l2.563,3.621h-2.779l-2.248-3.23h-1.567v3.23h-2.255
			v-10.125h3.843c1.575,0,2.692,0.266,3.365,0.797S156.597,132.519,156.597,133.697z M153.872,134.898
			c0.282-0.252,0.424-0.649,0.424-1.194c0-0.545-0.142-0.919-0.438-1.124c-0.283-0.202-0.794-0.303-1.521-0.303h-1.695v2.998h1.655
			C153.071,135.275,153.596,135.15,153.872,134.898z"/>
		<path fill="#FFFFFF" d="M158.919,130.335h2.254v4.159l3.829-4.159h2.786l-4.024,4.475c0.351,0.484,0.996,1.383,1.925,2.702
			c0.942,1.319,1.643,2.302,2.1,2.948h-2.631l-2.968-3.998l-1.017,1.131v2.867h-2.254V130.335z"/>
	</g>
	<path fill="#875F32" d="M40.56,379.07C83.312,453.755,163.777,504.079,256,504.079c92.222,0,172.688-50.324,215.44-125.009H40.56z"
		/>
	<g>
		<g>
			<path fill="#ECD7B9" d="M262.891,307.777c0,6.39-0.687,10.242-5.33,10.242h-2.799c-4.644,0-12.544-3.853-12.544-10.242v-33.413
				c0-6.39,7.9-11.474,12.544-11.474h2.799c4.644,0,5.33,5.084,5.33,11.474V307.777z"/>
			<path fill="#ECD7B9" d="M262.891,307.777c0,6.39-0.687,10.242-5.33,10.242h-2.799c-4.644,0-12.544-3.853-12.544-10.242v-33.413
				c0-6.39,7.9-11.474,12.544-11.474h2.799c4.644,0,5.33,5.084,5.33,11.474V307.777z"/>
			<path fill="#ECD7B9" d="M319.775,203.317c-0.518,0-1.016,0.148-1.493,0.4v-8.91c0-26.212-21.945-47.46-49.012-47.46h-26.394
				c-27.073,0-49.019,21.249-49.019,47.46v8.984c-0.524-0.303-1.069-0.475-1.635-0.475c-3.284,0-5.942,5.414-5.942,12.097
				c0,6.675,2.658,12.089,5.942,12.089c0.942,0,1.83-0.458,2.624-1.255c4.563,21.639,24.328,37.918,48.029,37.915h5.821
				c1.723,3.674,5.289,6.205,9.414,6.205c4.126,0,7.686-2.53,9.408-6.201h1.75c23.654,0,43.393-16.225,47.995-37.804
				c0.768,0.724,1.615,1.141,2.51,1.141c3.284,0,5.942-5.414,5.942-12.089C325.718,208.731,323.06,203.317,319.775,203.317z"/>
			<g>
				<path d="M228.395,229.98c0,1.211-0.982,2.194-2.193,2.194l0,0c-1.211,0-2.194-0.979-2.194-2.194v-5.118
					c0-1.211,0.983-2.194,2.194-2.194l0,0c1.211,0,2.193,0.982,2.193,2.19V229.98z"/>
				<path d="M287.992,229.98c0,1.215-0.982,2.194-2.194,2.194l0,0c-1.211,0-2.193-0.979-2.193-2.194v-5.118
					c0-1.211,0.982-2.194,2.193-2.194l0,0c1.212-0.003,2.194,0.982,2.194,2.194V229.98z"/>
				<g>
					<path fill="#C9B199" d="M255.192,258.874c-3.203,0-6.245-0.942-8.561-2.658c-2.51-1.857-3.95-4.505-3.95-7.268
						c0-1.417,1.151-2.567,2.571-2.567h19.886c1.42,0,2.57,1.151,2.57,2.567c0,2.763-1.44,5.411-3.95,7.268
						C261.438,257.931,258.396,258.874,255.192,258.874L255.192,258.874z"/>
					<path fill="#FFFFFF" d="M245.253,248.951c0,4.062,4.448,7.355,9.939,7.355c5.498,0,9.946-3.294,9.946-7.355H245.253z"/>
				</g>
			</g>
			<path d="M194.054,203.792l4.199,15.067l9.105-35.451c0,0,56.226,23.133,88.998,19.6l-5.564-8.139l13.277,11.564l3.532-8.886
				l4.173,21.205l6.702-15.034c0,0,17.72-41.515-28.546-60.149c-46.273-18.638-76.152,6.423-76.152,6.423
				S178.758,161.025,194.054,203.792z"/>
			<g>
				<path fill="#4A423F" d="M266.639,264.167h-1.742c-1.729,3.671-5.29,6.201-9.415,6.201s-7.691-2.53-9.415-6.205h-5.82
					c-3.035,0-6.01-0.269-8.89-0.781c-2.874,3.429-4.604,7.84-4.604,12.665v48.995c0,0.246,0.027,0.484,0.027,0.73h58.433
					c0.007-0.246,0.033-0.484,0.033-0.73v-48.995c0-5.283-2.086-10.071-5.464-13.614
					C275.596,263.557,271.195,264.167,266.639,264.167z"/>
				<path fill="#695D54" d="M266.639,264.167h-1.742c-1.729,3.671-5.29,6.201-9.415,6.201s-7.691-2.53-9.415-6.205h-5.801
					c1.992,6.817,7.981,11.767,15.048,11.767c7.126,0.003,13.136-5.021,15.088-11.912
					C269.163,264.109,267.911,264.167,266.639,264.167z"/>
			</g>
			<path d="M298.665,206.719l-19.516,0.091c-8.735,0.044-16.01,6.195-17.826,14.388c-0.714-0.319-1.515-0.518-2.362-0.515
				l-5.97,0.03c-0.854,0.003-1.648,0.208-2.361,0.535c-1.885-8.173-9.22-14.257-17.969-14.213l-19.516,0.094
				c-10.135,0.047-18.317,8.311-18.264,18.456c0.04,10.142,8.304,18.325,18.452,18.278l19.509-0.098
				c8.561-0.041,15.7-5.939,17.706-13.876c0.747,0.363,1.588,0.582,2.49,0.579l5.962-0.027c0.915-0.007,1.75-0.232,2.49-0.599
				c2.086,7.91,9.28,13.742,17.84,13.701l19.509-0.094c10.148-0.05,18.332-8.311,18.277-18.453
				C317.077,214.852,308.813,206.669,298.665,206.719z M232.823,240.323l-19.509,0.094c-8.23,0.041-14.953-6.625-14.994-14.852
				c-0.033-8.227,6.622-14.95,14.846-14.99l19.522-0.094c8.224-0.04,14.946,6.622,14.986,14.849
				C247.716,233.557,241.047,240.283,232.823,240.323z M298.827,240.004l-19.517,0.094c-8.224,0.04-14.953-6.625-14.993-14.849
				c-0.04-8.227,6.622-14.953,14.853-14.994l19.516-0.094c8.224-0.041,14.953,6.622,14.993,14.849
				C313.713,233.237,307.057,239.963,298.827,240.004z"/>
		</g>
		<g>
			<g>
				<path fill="#D8D8D8" d="M366.042,416.271c0,3.244-2.639,5.875-5.882,5.875H151.839c-3.243,0-5.881-2.631-5.881-5.875V264.112
					c0-3.247,2.638-5.878,5.881-5.878H360.16c3.243,0,5.882,2.632,5.882,5.878V416.271z"/>
				<path d="M360.16,424.108H151.839c-4.32,0-7.833-3.516-7.833-7.836V264.112c0-4.324,3.513-7.836,7.833-7.836H360.16
					c4.32,0,7.833,3.513,7.833,7.836v152.159C367.993,420.592,364.48,424.108,360.16,424.108z M151.839,260.192
					c-2.16,0-3.916,1.756-3.916,3.92v152.159c0,2.16,1.756,3.917,3.916,3.917H360.16c2.16,0,3.916-1.756,3.916-3.917V264.112
					c0-2.164-1.756-3.92-3.916-3.92H151.839z"/>
			</g>
			<g>
				<path d="M261.706,290.853c0-4.159,3.379-7.534,7.537-7.534v-0.835c0-2.691-2.18-4.872-4.872-4.872h-16.743
					c-2.691,0-4.872,2.181-4.872,4.872v16.737c0,2.692,2.181,4.872,4.872,4.872h16.743c2.692,0,4.872-2.18,4.872-4.872v-0.834
					C265.085,298.386,261.706,295.011,261.706,290.853z"/>
			</g>
			<path d="M292.811,462.285c0,3.862-3.136,6.992-6.992,6.992h-59.638c-3.855,0-6.992-3.129-6.992-6.992l0,0
				c0-3.86,3.137-6.989,6.992-6.989h59.638C289.675,455.296,292.811,458.425,292.811,462.285L292.811,462.285z"/>
			<path d="M273.934,348.912c0-4.815-3.909-8.721-8.721-8.721h-18.426c-4.812,0-8.722,3.906-8.722,8.721l-3.883,104.652
				c0,4.818,3.909,8.722,8.722,8.722h26.191c4.812,0,8.722-3.903,8.722-8.722L273.934,348.912z M256,372.617
				c-5.351,0-9.69-4.337-9.69-9.69c0-5.35,4.34-9.691,9.69-9.691c5.356,0,9.69,4.341,9.69,9.691
				C265.69,368.279,261.356,372.617,256,372.617z"/>
		</g>
	</g>
	<path fill="#F9F3A2" d="M306.391,72.854c0,27.831-22.558,50.391-50.391,50.391c-27.834,0-50.392-22.561-50.392-50.391
		c0-27.83,22.558-50.391,50.392-50.391C283.833,22.463,306.391,45.024,306.391,72.854z"/>
	<path d="M256,125.184c-28.856,0-52.329-23.473-52.329-52.329c0-28.853,23.473-52.329,52.329-52.329s52.329,23.476,52.329,52.329
		C308.329,101.711,284.856,125.184,256,125.184z M256,24.402c-26.717,0-48.453,21.736-48.453,48.453
		c0,26.72,21.736,48.453,48.453,48.453c26.716,0,48.452-21.733,48.452-48.453C304.452,46.138,282.716,24.402,256,24.402z"/>
	<g>
		<polygon points="284.237,104.517 253.577,73.861 253.577,42.969 258.422,42.969 258.422,71.852 287.662,101.092 		"/>
	</g>
</g>
</svg>
